<svg width="118" height="56" viewBox="0 0 118 56" fill="none" xmlns="http://www.w3.org/2000/svg">
<path d="M70.7524 7.84154C70.6775 7.91645 70.6026 8.01015 70.5276 8.08512C69.4972 9.11554 68.448 10.1648 67.4176 11.1952C67.3801 11.2327 67.3614 11.2514 67.3426 11.2701C67.2677 11.3638 67.2677 11.4575 67.3614 11.5886C68.1483 12.9188 68.6354 14.3427 68.8041 15.8603C69.1413 18.9703 68.3544 21.7619 66.406 24.216C64.7385 26.3144 62.5652 27.6258 59.9611 28.2066C58.762 28.4689 57.5443 28.4877 56.3264 28.3565C54.3218 28.1505 52.5232 27.4198 50.9119 26.2207C48.5887 24.4971 47.1461 22.2113 46.5466 19.3637C46.3218 18.3145 46.2843 17.2466 46.378 16.1975C46.6027 13.7431 47.5396 11.5698 49.207 9.71506C50.7995 7.93518 52.748 6.7736 55.0524 6.24906C56.1953 5.98675 57.3381 5.89306 58.5184 6.00548C60.2046 6.15536 61.7784 6.64251 63.2397 7.4856C63.4271 7.59796 63.502 7.52306 63.6145 7.41063C64.646 6.38003 65.6763 5.3496 66.7066 4.31912C66.7815 4.24415 66.8565 4.15051 66.9502 4.03809C68.2241 5.31209 69.4793 6.56736 70.7532 7.84136M63.7278 17.3965C63.8215 13.7806 60.9737 11.1577 57.7699 11.0638C54.154 10.9701 51.456 13.9678 51.456 17.2092C51.456 20.5254 54.2475 23.3917 57.6014 23.3359C60.899 23.3735 63.6529 20.6565 63.7281 17.3965" fill="#1B1B1B" fill-opacity="0.55"/>
<path d="M68.4653 42.4275C68.484 45.4626 68.4653 48.5166 68.4653 51.5517V51.9639H63.032V51.5892C63.032 48.4041 63.0508 45.2195 63.032 42.034C63.032 40.3666 62.4512 38.9052 61.2334 37.7436C60.4278 36.9755 59.4536 36.5258 58.3294 36.376C56.8681 36.1699 55.5378 36.5258 54.3575 37.4064C53.1772 38.3057 52.484 39.5235 52.2592 40.9661C52.1468 41.6593 52.128 42.3713 52.128 43.0832C52.1093 45.9123 52.128 48.7226 52.128 51.5517V51.9451H46.7329V51.5892C46.7329 48.1606 46.6955 44.7134 46.7517 41.2849C46.7891 39.4676 47.37 37.7439 48.3254 36.1701C49.9179 33.5472 52.1849 31.861 55.1636 31.1678C56.0817 30.9617 57.0746 30.8681 58.0301 30.9055C61.0091 31.0367 63.5571 32.217 65.5804 34.4465C67.0231 36.0578 67.9411 37.9313 68.2596 40.0859C68.3905 40.8726 68.4657 41.6592 68.4657 42.4277" fill="#1B1B1B" fill-opacity="0.55"/>
</svg>
