<svg width="187" height="56" viewBox="0 0 187 56" fill="none" xmlns="http://www.w3.org/2000/svg">
<g clip-path="url(#clip0_4641_58497)">
<g clip-path="url(#clip1_4641_58497)">
<path d="M143.566 33.7629C143.167 33.7644 142.772 33.8446 142.403 33.9989C142.035 34.1533 141.701 34.3787 141.42 34.6623C141.139 34.946 140.917 35.2822 140.766 35.6519C140.615 36.0215 140.538 36.4173 140.541 36.8165C140.538 37.2158 140.615 37.6115 140.766 37.9812C140.917 38.3508 141.139 38.6871 141.42 38.9707C141.701 39.2543 142.035 39.4798 142.403 39.6341C142.772 39.7884 143.167 39.8686 143.566 39.8701C145.235 39.8701 146.591 38.5022 146.591 36.8165C146.593 36.4173 146.517 36.0215 146.366 35.6519C146.215 35.2822 145.993 34.946 145.712 34.6623C145.431 34.3787 145.097 34.1533 144.728 33.9989C144.36 33.8446 143.965 33.7644 143.566 33.7629V33.7629ZM133.61 31.4046C133.61 29.0945 131.655 27.2243 129.243 27.2243C126.831 27.2243 124.875 29.0974 124.875 31.4046C124.875 33.7118 126.833 35.582 129.246 35.582C131.658 35.582 133.61 33.7118 133.61 31.4046V31.4046ZM133.627 23.2796H138.446V39.5267H133.627V38.4881C132.223 39.4578 130.556 39.9766 128.848 39.9751C124.157 39.9751 120.354 36.1383 120.354 31.4046C120.354 26.6709 124.157 22.8341 128.848 22.8341C130.622 22.8341 132.265 23.3818 133.627 24.3211V23.2796ZM95.0544 25.3967V23.2825H90.1192V39.5267H95.0657V31.941C95.0657 29.3812 97.8129 28.0076 99.7199 28.0076H99.7767V23.2825C97.8185 23.2825 96.0221 24.1282 95.0544 25.3967V25.3967ZM82.7605 31.4046C82.7605 29.0945 80.8052 27.2243 78.3929 27.2243C75.9807 27.2243 74.0254 29.0974 74.0254 31.4046C74.0254 33.7118 75.9835 35.582 78.3958 35.582C80.808 35.582 82.7605 33.7118 82.7605 31.4046V31.4046ZM82.7775 23.2796H87.5992V39.5267H82.7775V38.4881C81.4153 39.4246 79.7722 39.9751 77.9985 39.9751C73.3074 39.9751 69.5046 36.1383 69.5046 31.4046C69.5046 26.6709 73.3074 22.8341 77.9985 22.8341C79.7722 22.8341 81.4153 23.3818 82.7775 24.3211V23.2796ZM111.79 22.8454C109.866 22.8454 108.044 23.4471 106.823 25.1101V23.2825H102.024V39.5267H106.883V30.9903C106.883 28.5213 108.523 27.3095 110.501 27.3095C112.618 27.3095 113.839 28.5865 113.839 30.9562V39.5267H118.652V29.1967C118.652 25.4166 115.672 22.8454 111.79 22.8454V22.8454ZM62.4835 39.5267H67.5294V16.0429H62.4835V39.5267ZM40.3193 39.5324H45.6631V16.0372H40.3222L40.3193 39.5324ZM59.0099 16.0372C59.0099 21.1228 57.0461 25.8565 53.5441 29.3726L60.9283 39.5324H54.3302L46.3074 28.4929L48.379 26.9264C50.0655 25.6579 51.432 24.0126 52.3692 22.1219C53.3065 20.2312 53.7885 18.1475 53.7768 16.0372H59.0042H59.0099Z" fill="#1B1B1B" fill-opacity="0.55"/>
</g>
</g>
<defs>
<clipPath id="clip0_4641_58497">
<rect width="106.274" height="24" fill="white" transform="translate(40.3203 16)"/>
</clipPath>
<clipPath id="clip1_4641_58497">
<rect width="106.274" height="24" fill="white" transform="translate(40.3203 16)"/>
</clipPath>
</defs>
</svg>
