<svg width="193" height="56" viewBox="0 0 193 56" fill="none" xmlns="http://www.w3.org/2000/svg">
<g clip-path="url(#clip0_4641_58495)">
<path d="M78.8407 29.762C77.8847 29.2337 77.3816 28.8061 77.3816 28.2023C77.3816 27.4225 78.0608 26.9445 79.1425 26.9445C80.4003 26.9445 81.5072 27.4728 81.5072 27.4728L82.3876 24.7811C82.3876 24.7811 81.5826 24.1522 79.1928 24.1522C75.8723 24.1522 73.558 26.0641 73.558 28.7306C73.558 30.2399 74.6397 31.3971 76.0735 32.2273C77.2307 32.8813 77.6332 33.3593 77.6332 34.0385C77.6332 34.768 77.0546 35.3466 75.9729 35.3466C74.363 35.3466 72.8536 34.5164 72.8536 34.5164L71.9229 37.2081C71.9229 37.2081 73.3316 38.1389 75.671 38.1389C79.0922 38.1389 81.5323 36.4534 81.5323 33.4347C81.5826 31.7745 80.3248 30.6173 78.8407 29.762Z" fill="#1B1B1B" fill-opacity="0.55"/>
<path d="M92.4766 24.1017C90.7912 24.1017 89.4831 24.9067 88.4517 26.1142L88.4014 26.089L89.8604 18.4417H86.0367L82.3389 37.8871H86.1374L87.3952 31.246C87.8983 28.7304 89.1812 27.1959 90.3887 27.1959C91.244 27.1959 91.571 27.7745 91.571 28.6046C91.571 29.1329 91.5207 29.7618 91.3949 30.2901L89.961 37.9123H93.7595L95.2437 30.0637C95.4198 29.2335 95.5204 28.2524 95.5204 27.5732C95.5707 25.3847 94.4639 24.1017 92.4766 24.1017Z" fill="#1B1B1B" fill-opacity="0.55"/>
<path d="M104.173 24.1023C99.5946 24.1023 96.5508 28.2279 96.5508 32.8314C96.5508 35.7746 98.362 38.1644 101.783 38.1644C106.286 38.1644 109.305 34.1395 109.305 29.4353C109.33 26.6933 107.745 24.1023 104.173 24.1023ZM102.311 35.2212C101.003 35.2212 100.475 34.1143 100.475 32.7308C100.475 30.5422 101.607 26.9952 103.67 26.9952C105.028 26.9952 105.456 28.1524 105.456 29.2844C105.456 31.6491 104.324 35.2212 102.311 35.2212Z" fill="#1B1B1B" fill-opacity="0.55"/>
<path d="M119.065 24.1023C116.499 24.1023 115.04 26.3663 115.04 26.3663H114.989L115.216 24.3287H111.845C111.669 25.7123 111.367 27.8002 111.065 29.385L108.424 43.2711H112.222L113.279 37.6362H113.354C113.354 37.6362 114.134 38.1393 115.593 38.1393C120.071 38.1393 122.989 33.5609 122.989 28.9322C122.989 26.3915 121.857 24.1023 119.065 24.1023ZM115.442 35.2967C114.461 35.2967 113.883 34.7432 113.883 34.7432L114.512 31.1963C114.964 28.8316 116.197 27.2468 117.505 27.2468C118.662 27.2468 119.014 28.3285 119.014 29.3347C119.014 31.7748 117.555 35.2967 115.442 35.2967Z" fill="#1B1B1B" fill-opacity="0.55"/>
<path d="M128.423 18.6432C127.215 18.6432 126.234 19.5991 126.234 20.8569C126.234 21.9889 126.939 22.7688 128.02 22.7688H128.071C129.253 22.7688 130.284 21.9638 130.31 20.555C130.335 19.423 129.58 18.6432 128.423 18.6432Z" fill="#1B1B1B" fill-opacity="0.55"/>
<path d="M123.09 37.8874H126.914L129.505 24.4038H125.656L123.09 37.8874Z" fill="#1B1B1B" fill-opacity="0.55"/>
<path d="M139.164 24.3785H136.523L136.649 23.7496C136.875 22.4415 137.63 21.2844 138.913 21.2844C139.592 21.2844 140.12 21.4856 140.12 21.4856L140.875 18.5172C140.875 18.5172 140.221 18.1902 138.812 18.1902C137.454 18.1902 136.121 18.5675 135.089 19.448C133.781 20.5548 133.177 22.1397 132.875 23.7496L132.775 24.3785H131.014L130.461 27.2463H132.221L130.209 37.8872H134.007L136.02 27.2463H138.636L139.164 24.3785Z" fill="#1B1B1B" fill-opacity="0.55"/>
<path d="M148.321 24.4038C148.321 24.4038 145.931 30.3909 144.874 33.6612H144.824C144.749 32.6046 143.893 24.4038 143.893 24.4038H139.894L142.183 36.7805C142.233 37.0572 142.208 37.2333 142.107 37.4094C141.654 38.2647 140.925 39.0948 140.044 39.6986C139.34 40.2269 138.535 40.5539 137.906 40.7803L138.963 44.0002C139.743 43.8241 141.327 43.1952 142.686 41.9375C144.422 40.3023 146.032 37.8119 147.667 34.3907L152.32 24.4038H148.321V24.4038Z" fill="#1B1B1B" fill-opacity="0.55"/>
<path d="M58.8162 15.6492C58.8162 15.6492 58.464 15.7498 57.8854 15.9259C57.7848 15.5989 57.6339 15.2215 57.4326 14.819C56.7786 13.5613 55.7975 12.882 54.6403 12.882C54.5649 12.882 54.4894 12.882 54.3888 12.9072C54.3636 12.8569 54.3133 12.8317 54.2881 12.7814C53.785 12.228 53.131 11.9764 52.3512 12.0016C50.8418 12.0519 49.3325 13.1336 48.125 15.0706C47.2697 16.429 46.6157 18.1396 46.4396 19.4729C44.7038 20.0012 43.4964 20.3785 43.4712 20.4037C42.5908 20.6804 42.5656 20.7055 42.465 21.5357C42.3895 22.1646 40.0752 39.8743 40.0752 39.8743L59.0929 43.1697V15.624C58.9419 15.624 58.8665 15.6492 58.8162 15.6492ZM54.4139 17.0076C53.4077 17.3095 52.3009 17.6617 51.2192 17.9887C51.521 16.8064 52.1248 15.624 52.8291 14.8442C53.1058 14.5675 53.4832 14.2405 53.9108 14.0392C54.3385 14.9448 54.4391 16.1775 54.4139 17.0076ZM52.3512 13.033C52.7033 13.033 53.0052 13.1084 53.2568 13.2594C52.8543 13.4606 52.4518 13.7877 52.0744 14.165C51.1185 15.1964 50.389 16.8064 50.0872 18.3409C49.1815 18.6176 48.2759 18.8943 47.4458 19.1459C47.9992 16.7309 50.0368 13.0833 52.3512 13.033ZM49.4331 26.8687C49.5337 28.4787 53.785 28.8309 54.0366 32.6294C54.2127 35.623 52.4518 37.6606 49.9111 37.8115C46.8421 38.0128 45.1566 36.2015 45.1566 36.2015L45.8107 33.4344C45.8107 33.4344 47.4961 34.7173 48.8545 34.6167C49.735 34.5664 50.062 33.8369 50.0368 33.3338C49.9111 31.2207 46.4396 31.3465 46.2132 27.8749C46.0119 24.9569 47.9238 22.0136 52.1499 21.7369C53.785 21.6363 54.6152 22.0388 54.6152 22.0388L53.6593 25.6612C53.6593 25.6612 52.5776 25.1581 51.2946 25.2587C49.4331 25.3845 49.4079 26.5668 49.4331 26.8687ZM55.4202 16.7057C55.4202 15.9511 55.3195 14.8694 54.9674 13.9637C56.1245 14.1902 56.6779 15.4731 56.9295 16.2529C56.4767 16.3787 55.9736 16.5296 55.4202 16.7057Z" fill="#1B1B1B" fill-opacity="0.55"/>
<path d="M59.6709 43.1201L67.5698 41.158C67.5698 41.158 64.1738 18.1907 64.1486 18.0397C64.1235 17.8888 63.9977 17.7882 63.8719 17.7882C63.7461 17.7882 61.5324 17.7379 61.5324 17.7379C61.5324 17.7379 60.174 16.4298 59.6709 15.9266V43.1201Z" fill="#1B1B1B" fill-opacity="0.55"/>
</g>
<defs>
<clipPath id="clip0_4641_58495">
<rect width="112.245" height="32.0003" fill="white" transform="translate(40.0752 11.9999)"/>
</clipPath>
</defs>
</svg>
