<svg xmlns="http://www.w3.org/2000/svg" width="55" height="11" viewBox="0 0 55 11" fill="none">
						<path d="M5.15753 8.12183L8.24753 10.085L7.42753 6.38499L10.1575 3.89552L6.56253 3.57447L5.15753 0.0849915L3.75253 3.57447L0.157532 3.89552L2.88753 6.38499L2.06753 10.085L5.15753 8.12183Z" fill="#FFCF25"></path>
						<path d="M16.1575 8.12183L19.2475 10.085L18.4275 6.38499L21.1575 3.89552L17.5625 3.57447L16.1575 0.0849915L14.7525 3.57447L11.1575 3.89552L13.8875 6.38499L13.0675 10.085L16.1575 8.12183Z" fill="#FFCF25"></path>
						<path d="M38.1575 8.12183L41.2475 10.085L40.4275 6.38499L43.1575 3.89552L39.5625 3.57447L38.1575 0.0849915L36.7525 3.57447L33.1575 3.89552L35.8875 6.38499L35.0675 10.085L38.1575 8.12183Z" fill="#FFCF25"></path>
						<path d="M27.1575 8.12183L30.2475 10.085L29.4275 6.38499L32.1575 3.89552L28.5625 3.57447L27.1575 0.0849915L25.7525 3.57447L22.1575 3.89552L24.8875 6.38499L24.0675 10.085L27.1575 8.12183Z" fill="#FFCF25"></path>
						<path d="M49.1575 8.12183L52.2475 10.085L51.4275 6.38499L54.1575 3.89552L50.5625 3.57447L49.1575 0.0849915L47.7525 3.57447L44.1575 3.89552L46.8875 6.38499L46.0675 10.085L49.1575 8.12183Z" fill="#FFCF25"></path>
					</svg>