<svg width="120" height="56" viewBox="0 0 120 56" fill="none" xmlns="http://www.w3.org/2000/svg">
<g clip-path="url(#clip0_4641_58503)">
<path d="M50.6063 26.4621C51.1092 26.4622 52.9255 26.738 52.9256 28.9602C52.9256 31.1827 50.9782 31.7331 50.8651 31.7825C50.7535 31.8312 50.831 31.9105 50.8328 31.9123C50.8376 31.9142 50.9586 31.9606 51.578 31.9446C52.2107 31.9281 52.8601 33.0972 53.1365 33.6975C53.4134 34.297 53.5254 35.1739 53.5418 35.6282C53.7203 35.6278 53.8575 34.9563 54.0184 34.7346C54.1794 34.5134 54.7881 31.5081 57.493 31.4397C59.2475 31.4397 59.4862 33.125 59.4862 33.5276C59.4859 33.9312 58.9896 36.8149 55.992 36.7746C55.9718 37.4789 56.5212 38.0688 57.4735 38.216C58.0167 38.216 59.2785 37.753 60.0233 35.3987C60.3441 33.1127 60.937 27.6425 60.9412 27.6037L63.2752 27.4758L62.1346 36.8811C62.1346 36.8811 61.9547 37.6526 62.4578 37.6526C62.9608 37.6524 63.4898 36.9894 63.5301 36.5666C63.5701 36.1457 64.6638 27.4403 64.6717 27.3772L66.992 27.2551L65.9168 35.9221C65.9127 35.9427 65.7363 36.8484 66.2537 36.8684C66.777 36.8885 67.3616 36.5257 67.4422 35.7815C67.5218 35.039 68.0942 30.5689 68.0985 30.5354L70.1307 30.2737L69.5135 35.3518C69.5135 35.3518 69.5273 36.0832 70.2518 36.0832C70.9668 36.0829 71.1134 35.2392 71.117 35.218L71.8416 30.0256L73.8074 29.7033L72.3856 41.4905C72.3856 41.4905 70.6043 41.5299 69.1668 41.966C67.3547 42.5177 64.8171 44.2512 63.6199 45.1643C62.4225 46.0777 59.3822 47.9211 56.7498 48.0002C53.8348 47.9367 51.8163 46.7719 49.7059 42.927C49.8499 42.9427 52.1816 45.6212 54.8123 45.6526C57.5537 45.6211 60.3733 43.3208 61.4451 42.7532C62.1547 42.2971 65.5775 39.861 67.9881 39.6399C68.6893 39.5114 69.2076 39.4023 70.6072 39.4172C70.5874 39.4138 70.8563 36.9211 70.8563 36.9211C70.8563 36.9211 70.1919 37.7727 69.1053 37.7727C68.028 37.7726 67.86 36.9956 67.8572 36.9826C67.8397 37.0092 66.781 38.6047 65.6033 38.6047C64.6777 38.6045 64.3358 37.8332 64.3358 37.8332C64.3358 37.8332 63.0809 39.3428 61.8533 39.343C60.63 39.343 60.0329 38.0233 60.0291 38.0149C60.0132 38.0403 58.8646 39.8655 56.3865 39.8655C53.8918 39.8653 53.3342 38.2758 53.4149 36.8196C53.411 36.8111 53.3462 36.6718 53.3143 36.8762C52.438 39.2111 50.6542 40.2014 49.4051 40.2014C48.17 40.2013 47.7444 38.7893 47.7352 38.758C47.7283 38.7892 47.3042 40.6387 44.3934 40.6389C41.4577 40.6389 40.9547 38.0942 40.9871 37.1516C40.8415 36.1129 42.3812 34.3294 43.7762 34.4104C45.1709 34.4926 45.5944 35.4493 45.578 35.7414C45.5613 36.0326 45.2859 36.4383 45.4627 36.552C45.5269 36.552 45.9989 36.665 45.9989 35.6106C45.9987 34.5695 45.2383 34.161 45.2205 34.1516C45.2205 34.1516 45.6584 30.1124 45.8533 29.8196C47.0695 26.4287 50.1027 26.4621 50.6063 26.4621ZM48.951 33.1614C48.7894 33.1614 48.4999 33.3063 48.4969 33.3078C48.4938 33.3329 48.1227 36.2779 48.075 36.8274C48.0272 37.3782 48.5619 38.1913 49.0799 38.2073C49.403 38.273 50.5227 37.2816 50.5897 35.7248C50.5419 33.3078 49.1132 33.1614 48.951 33.1614ZM57.6444 33.175C57.2418 33.175 56.1552 33.6581 56.1151 35.3889C56.1428 35.3888 57.9279 35.3768 58.1678 33.8596C58.1277 33.3765 58.0471 33.1751 57.6444 33.175ZM50.0203 27.9065C49.29 27.892 49.0164 29.0901 49.0164 29.0901L48.6258 32.01C48.6258 32.01 49.6323 31.6854 50.3289 31.1994C51.0259 30.7124 50.9137 29.9173 50.994 29.3977C51.0745 28.878 50.7512 27.9218 50.0203 27.9065ZM71.1278 8.00022C73.6026 8.06063 76.3597 8.72527 76.8426 13.3537C75.5948 10.7377 73.5031 10.5364 72.577 10.5364C69.941 10.4159 66.9822 12.689 66.4383 13.0715C65.8955 13.4538 63.9237 14.8229 63.0985 15.3059C62.2737 15.7886 60.8654 16.3524 60.6834 16.3528L60.7039 16.3713C60.7039 16.3713 59.8583 20.8997 59.8182 21.1008C59.7782 21.3019 59.8186 21.3618 59.9793 21.1408C60.1403 20.9195 61.2471 18.0213 63.4403 17.9006C65.3716 18.1017 65.4324 19.5298 65.4324 19.9328C65.4324 20.3354 65.0304 23.2739 62.0321 23.2336C62.0119 23.9378 62.7769 24.7427 63.4207 24.6223C63.9642 24.6221 65.2519 24.2388 65.9969 21.885C66.3172 19.6017 66.9361 14.0918 66.9422 14.0373L69.2762 13.8957L68.1492 23.3137C68.1484 23.3172 67.9699 24.0989 68.4715 24.0989C68.9746 24.0987 69.4782 23.4344 69.5184 23.0119C69.5586 22.5894 70.676 13.8696 70.6854 13.7961L72.9793 13.675L71.9725 22.3283C71.9725 22.3283 71.7723 23.2944 72.2957 23.3147C72.8182 23.3343 73.3614 22.9321 73.4422 22.1877C73.5226 21.4457 74.0821 16.9843 74.0858 16.9553L76.119 16.6936L75.5155 21.7854C75.5155 21.7996 75.5226 22.5295 76.2401 22.5295C76.9558 22.5293 77.0628 21.6451 77.0653 21.6242L77.7899 16.4319L79.7821 16.1096L78.3729 27.9631C78.3729 27.9631 76.924 28.0034 76.0584 28.4465C75.1324 28.7279 73.8846 29.8147 73.8846 29.8147C73.8846 29.8147 74.0047 28.6269 74.7694 27.842C75.5347 27.0572 75.8964 26.6548 76.5408 26.5744C76.5235 26.548 76.8405 23.3756 76.8426 23.3547C76.8327 23.3663 76.1304 24.1799 75.0516 24.1799C73.9751 24.1798 73.8862 23.4299 73.8846 23.4153C73.8712 23.4359 72.8102 25.0645 71.6307 25.0647C70.7166 25.0647 70.3322 24.2599 70.3231 24.2405C70.31 24.2575 69.1289 25.7893 67.908 25.7893C66.6804 25.7892 65.9764 24.4211 65.9764 24.4211C65.9764 24.4211 64.8286 26.2725 62.3338 26.2727C59.8385 26.2727 59.5366 24.4418 59.6971 22.4094C59.6971 22.4094 59.6161 22.4699 59.576 22.6106C59.5342 22.7569 58.6501 25.8501 57.9061 26.3127C57.3831 27.0372 56.5175 27.259 55.1492 27.259C53.7809 27.259 51.4873 26.5949 51.4871 23.1741C51.7486 20.578 53.7006 20.2961 54.284 20.2961C54.8679 20.2359 56.4165 20.9605 56.4168 22.2883C56.4371 22.6703 56.3368 22.932 56.4373 23.0129C56.7394 23.0932 56.941 22.691 56.9207 22.2483C56.9008 21.8054 56.8196 20.8802 56.075 20.2766C56.075 20.2766 56.6381 17.7406 56.5574 17.3782C56.544 17.3763 56.2621 17.3381 55.7127 17.3381C55.1493 17.338 54.7869 17.0969 54.7869 17.0969L55.3514 14.1584C55.3739 14.1668 56.3242 14.5207 56.9207 14.5207C57.5247 14.5207 59.2954 14.3596 60.9451 13.1526C62.3941 12.3478 62.9976 11.7837 63.6414 11.3811C64.2852 10.9789 68.8746 7.94625 71.1278 8.00022ZM63.4803 19.551C63.0777 19.551 61.9911 20.0341 61.951 21.7649C61.9817 21.7648 63.7641 21.7516 64.0037 20.2356C63.9636 19.7528 63.8826 19.5511 63.4803 19.551Z" fill="#1B1B1B" fill-opacity="0.55"/>
</g>
<defs>
<clipPath id="clip0_4641_58503">
<rect width="38.8045" height="40" fill="white" transform="translate(40.9775 8)"/>
</clipPath>
</defs>
</svg>
