<svg width="231" height="56" viewBox="0 0 231 56" fill="none" xmlns="http://www.w3.org/2000/svg">
<g clip-path="url(#clip0_4641_58509)">
<path d="M98.6389 28.87L96.6469 28.687C95.3409 28.573 94.8149 28.115 94.8149 27.313C94.8149 26.374 95.6159 25.756 97.1729 25.756C98.6389 25.756 99.3719 26.396 99.4859 27.427H104.158C103.86 24.382 101.708 22.229 97.3109 22.229C92.7309 22.229 90.2109 24.565 90.2109 27.656C90.2109 30.542 91.7909 32.122 95.7079 32.443L97.6779 32.603C99.2109 32.718 99.7609 33.244 99.7609 34.16C99.7609 35.122 98.9599 35.832 97.3109 35.832C95.7759 35.832 94.8609 35.145 94.7009 33.932H89.7759C90.2109 37.252 92.5469 39.45 97.2879 39.45C101.891 39.45 104.433 37.092 104.433 33.908C104.433 30.817 102.738 29.237 98.6389 28.87ZM82.5169 22.229C79.5859 22.229 77.8449 23.763 77.0209 26.901H76.7229V22.504H72.0969V39.176H77.0209V29.466C77.0209 27.244 78.1659 26.031 80.2269 26.031C82.2649 26.031 83.2729 27.291 83.2729 29.443V39.176H88.1959V28.573C88.1959 24.542 86.0899 22.229 82.5169 22.229ZM67.3109 16C65.6389 16 64.3789 17.1 64.3789 18.771C64.3789 20.443 65.6159 21.542 67.2879 21.542C68.9599 21.542 70.1959 20.442 70.1959 18.771C70.1959 17.122 68.9599 16 67.3109 16ZM69.7609 22.504H64.8369V39.176H69.7609V22.504ZM112.173 18.977H109.036C108.944 21.657 107.799 22.824 105.234 23.03V26.42H107.25V33.748C107.25 37.435 109.356 39.45 113.547 39.45C114.335 39.45 115.12 39.35 115.883 39.153V35.19C115.49 35.2553 115.091 35.2857 114.693 35.281C112.929 35.281 112.173 34.617 112.173 32.762V26.42H116.502V22.504H112.173V18.977ZM190.265 26.42V22.504H185.937V18.977H182.845C182.776 20.832 182.227 21.908 181.013 22.504V33.748C181.013 37.435 183.12 39.45 187.311 39.45C188.099 39.45 188.884 39.35 189.647 39.153V35.19C189.253 35.2553 188.855 35.2858 188.456 35.281C186.692 35.281 185.937 34.617 185.937 32.762V26.42H190.265ZM174.143 27.153H173.845V22.503H169.288V39.176H174.212V30.153C174.212 27.656 175.334 26.603 177.899 26.603C178.334 26.603 178.815 26.649 179.479 26.763V22.458C179.03 22.3005 178.557 22.223 178.082 22.229C176.089 22.229 174.715 23.374 174.143 27.153ZM142.7 35.237C140.387 35.237 138.715 33.702 138.715 30.725C138.715 28.069 140.272 26.42 142.654 26.42C144.692 26.42 145.86 27.565 146.204 29.397H151.196C150.715 25.114 147.647 22.229 142.723 22.229C137.318 22.229 133.769 25.893 133.769 30.909C133.769 36.107 137.181 39.45 142.654 39.45C147.624 39.45 150.853 36.68 151.311 32.19H146.318C146.044 34.023 144.784 35.237 142.7 35.237ZM125.044 22.229C120.761 22.229 118.174 24.336 117.715 28.114H122.433C122.593 26.809 123.441 26.122 124.929 26.122C126.44 26.122 127.127 26.809 127.127 27.794C127.127 28.618 126.601 29.054 125.25 29.305L123.005 29.718C119.044 30.45 117.532 32.076 117.532 34.664C117.532 37.618 119.616 39.474 122.502 39.474C124.86 39.474 126.395 38.374 127.105 35.626H127.402V39.176H132.052V28.298C132.052 24.519 129.784 22.229 125.044 22.229ZM124.494 36.107C123.166 36.107 122.41 35.397 122.41 34.343C122.41 33.473 122.937 32.878 124.242 32.58L125.158 32.374C125.948 32.191 126.561 31.947 127.128 31.457V33.221C127.128 35.259 126.051 36.107 124.494 36.107ZM160.036 22.229C155.753 22.229 153.166 24.336 152.708 28.114H157.425C157.586 26.809 158.433 26.122 159.921 26.122C161.433 26.122 162.12 26.809 162.12 27.794C162.12 28.618 161.593 29.054 160.242 29.305L157.998 29.718C154.036 30.45 152.524 32.076 152.524 34.664C152.524 37.618 154.608 39.474 157.494 39.474C159.853 39.474 161.387 38.374 162.097 35.626H162.395V39.176H167.044V28.298C167.044 24.519 164.776 22.229 160.036 22.229ZM159.486 36.107C158.158 36.107 157.402 35.397 157.402 34.343C157.402 33.473 157.929 32.878 159.234 32.58L160.15 32.374C160.94 32.191 161.554 31.947 162.12 31.457V33.221C162.12 35.259 161.044 36.107 159.486 36.107Z" fill="#1B1B1B" fill-opacity="0.55"/>
<path d="M56.5493 19.9888C55.5373 19.9888 54.8153 20.4298 54.1493 21.3878L52.2293 24.1448V16.2748H47.6493V24.1448L45.7293 21.3878C45.0643 20.4298 44.3423 19.9888 43.3293 19.9888C41.8013 19.9888 40.7843 21.1168 40.7793 22.5068C40.7753 23.6968 41.3363 24.4728 42.5193 25.2348L49.9393 30.0148L57.3593 25.2348C58.5423 24.4728 59.1033 23.6968 59.0993 22.5068C59.0953 21.1168 58.0773 19.9888 56.5493 19.9888Z" fill="#1B1B1B" fill-opacity="0.55"/>
<path d="M49.9388 31.1597C54.3488 31.1597 57.9638 34.4517 57.9538 39.1757H41.9238C41.9148 34.4537 45.5288 31.1597 49.9388 31.1597Z" fill="#1B1B1B" fill-opacity="0.55"/>
</g>
<defs>
<clipPath id="clip0_4641_58509">
<rect width="150" height="24" fill="white" transform="translate(40.7793 16)"/>
</clipPath>
</defs>
</svg>
